<?xml version="1.0" encoding="UTF-8"?>
<svg xmlns="http://www.w3.org/2000/svg" xmlns:xlink="http://www.w3.org/1999/xlink" version="1.1" viewBox="0 0 2214.1 2703.3">
  <defs>
    <style>
      .cls-1 {
        stroke: #231f20;
        stroke-miterlimit: 10;
        stroke-width: 9px;
      }

      .cls-1, .cls-2 {
        fill: #fff;
      }

      .cls-3 {
        isolation: isolate;
      }
    </style>
  </defs>
  <!-- Generator: Adobe Illustrator 28.7.2, SVG Export Plug-In . SVG Version: 1.2.0 Build 154)  -->
  <g>
    <g id="Layer_1">
      <g>
        <path class="cls-2" d="M-383.9,67.4c6,4.7,12.7,8.5,18.7,13.2,9,7.1,15.3,12.9,19.6,23.9,7,18.1,7.6,52.8,4.4,72-.3,1.9-1.4,4.6-3.5,4.8-4.8.4-19.5-3.4-25-4.7-11.2-2.7-20.9-7.5-32.5-6.3-14.6,1.5-31.4,8.2-46,10.2-1.8.3-3.6.3-5.4.2-1.7-1.7,5.9-6.4,7.3-7.4,6.8-4.8,18.1-12.2,26.2-13.5s20.7-1.3,30.5-1.7l4.1-7.9c-5.7-12.3-10.4-25.2-16.3-37.4-1.8-3.8-4.7-10.7-7.3-13.7-4.3-4.9-23.6-16.3-30-17.3s-1.6-.1-.8.8c5.3,5.5,15.7,10.3,21.4,16.1,4.8,4.5,6.3,7.2,8.4,13.3,1.6,4.6,8.2,30,7.2,33.1-1.6,4.8-23.8,1.8-28.6,2.9-8.8,10.4-21.2,16.5-32.4,23.9-2.9.5.3-6.3-.5-7.4s-3.9-1.8-5.1-2.8c-4-3.1-7.4-7.6-12.8-8.6,2.8,2.4,9.8,10.7,10.4,14s-4.3,8.3-7,8.9c-2.8.2-4-8.6-11.2-4.9s-2.5,4.6-6.2,5.1c-6.3.9-5.4-2.7-8.6-4.8-5.4-3.6-7.9,1-10.9,4.8-2.4.6-7.9-6.7-7.6-9.2s4.1-5.6,4.8-7.9l5.5-6.1c-5.6,1.2-9.3,6.1-13.5,9.3s-4.2,1.8-4.4,2c-.8,1.1,2.4,8-.5,7.4-7.8-5.8-18.5-10.8-25.8-17s-5.3-6.5-6.6-6.9c-3-.9-5.7.5-8.1.4-4.1,0-10.3-.2-14.3-.6s-4.4-.9-6-2.2c-1.3-2.1.9-9.3,1.5-12,1.6-7.4,4.4-21.2,7.7-27.5,5.4-10.1,19.9-15.6,27.5-23.5s0-.9-.8-.8c-5.5.9-21,9.8-25.5,13.5s-8.6,10.9-11.8,17.5c-5.9,12.2-10.6,25.2-16.2,37.5l4.1,8c4.2-.4,8.4-.3,12.6,0,6.1.4,18,1.1,23.4,2.8,3.5,1.1,25.4,14.6,27.3,17s.9,1.5.7,2.7c-1.8,0-3.6,0-5.4-.2-15.2-2.1-32.9-9.3-48.2-10.3s-34.3,9-49.6,10.4c-10.8,1-9.2-3.7-10-13-2.9-30.5-2.4-70.9,27.1-88.4l15.7-10.9c-3.5,0-6.8,1.7-10,3.1-20.5,8.8-36.8,21.6-43,44-4.4,15.8-11.8,57.3-10,72.6s8.3,4.6,11.8,6.9c5,3.3,6.2,9.5,14.3,5.6s4.8-3.8,10.1-5.6c9.8-3.4,23.9-8.2,34-8.8s47.8,0,60.4,4.9c2.8,1.1,6,3.9,1,4.8-17.9,3.2-36.2,4.6-54.2,5.8s-22.7,11.2-30.4,15.4c-15,8.2-52.4,25.1-62.4,35.9s-10,12.4-10.4,17.4,3.2,4.2,7,6.3c9.4,5.4,35.5,29.8,41.5,38.8,11.6,17.5,19,55.1,22.8,76.2,11,60.2,13.8,121.7,16.8,182.7l.7,88.9c1.1-.1,1.3-3.3,1.4-4.2,4.4-31.4,2.7-69.1,3.1-101.2.8-70,.2-140.5-10.6-209.8-2.6-16.6-6.8-32.9-8.8-49.5-4-2-8.2-1.7-12.6-3.4-7.1-2.7-30.2-17.4-29.3-25.8s14.9-14.8,19.9-18.4c18.9-13.5,47.2-32.8,69.5-38.5,12.5-3.2,28.4-5.8,41-2.9,1,1.5-4,6-5.2,7.1-12,10.4-29.4,16.7-43.9,22.9-2.2,1.7-9.8,15.8-9.8,18.4,10.2,33.7,21.5,67.2,29.3,101.6,12.9,56.9,13.2,117,15.3,175.2,3.3,89,5,178.5,6.1,267.7.5,39.1,0,78.3.7,117.4,1.3.2.7-1.7.7-2.6.6-14.7.2-29.6,1.5-44.2l2.3-102c-1.4-124.1,8.5-252.3-5.3-375.8-2.7-24.1-9.3-51.4-10.5-75-.2-4.7,1.6-11.3-.4-15.3s-2.1-1.9-2.9-3.1c-6.8-10.6-13.5-22-14.6-34.9-.8-9.7,2.2-11.9,8.9-17.9s13.5-10.6,19.7-14.8,11.4-9.1,16.5-7.9c5.4,1.2,3.2,5.4,1.7,8.9-3.3,7.4-10.4,14.5-13.4,21.1s1.1,14.6,2.2,19.4c4.4,20.5,10.9,42.8,17.4,62.8s7.7,25.4,11.5,32,1,1.7,1.8.5l1.2-11.5,1-1.2h19.1l.9,12.2,2.1,1.3c10.5-30.1,20.8-60.5,28-91.6s4-14.9,4.2-19.9,0-1.8-.5-3c-1.3-3.5-8.1-11.4-10.5-15.7s-5.1-9.4-5.2-11.2c-.1-4.3,5-4.6,8.1-3.7s13.3,8.6,16.7,11c5,3.6,20.7,15.1,22.8,19.9,5.1,11.5-6.6,33.8-13,43.6-.9,1.4-2.7,2.4-3.5,4-2,4.3-.3,11-.6,15.9-1,18-5.8,38.2-8.1,56.4-12.4,98.6-9.3,199.1-8.3,298.4s1.7,148,3.7,222.1c0,1.8.7,3.4.8,5.2.2,4-.2,8,0,12s-.6,2.8.7,2.6c.6-38.4.2-76.8.7-115.2,1.3-100.9,2.9-202.2,7.6-302.9,2.1-45.6,3.2-91.5,13.1-136.2,7.9-35.9,19.8-70.8,30.2-106l-9-17.5c-17.4-7.1-37.5-14.5-50-29,.6-4,17.3-2.3,20.6-2,33.1,3.3,60.3,21.2,86.9,39.9,5.1,3.6,22.4,14.7,23,20.5.7,6.7-11.5,15.2-16.6,18.6-8.2,5.5-15.4,8.9-25.3,10.4-2.2,17-6.4,33.6-9,50.6-13.1,84.2-12,170.7-9.8,255.6.5,19.7.3,39.4,3,58.9l.7-2.6.7-84c0-1.8.8-3.4.8-5.2,2-58.6,5-117.5,15.2-175.3,4.2-23.6,12.5-68.2,27.9-86.1s28-27.9,37.2-33.3,7-1.1,7.2-5.4-10.9-19.6-15.6-23.1c-18.5-10.3-37.3-20.2-56-30.3s-24.8-16-32.2-16.4-6.3.7-9.6.5c-14.4-1-29.6-5.3-44.2-6l-2.7-1.8c0-3.6,18.2-5.9,21.5-6.3,13.4-1.7,30.7-2.5,44.1-1.6s32.4,7.7,38.4,11.1,4.3,4.6,8.9,4.5,5.3-3.4,7.8-5.5c3.8-3.4,8.9-3.9,13.2-6.3,1.4-16.1-1.6-32.4-4.4-48.2-3.1-17.7-5.6-34.5-17-49-10.1-12.8-25.9-18.8-40.5-25.1h161.2v861h-552V67.4h389.5Z"/>
        <path d="M-382.4,67.4c14.5,6.4,30.4,12.4,40.5,25.1,11.4,14.5,13.9,31.3,17,49,2.8,15.8,5.7,32.1,4.4,48.2-4.3,2.5-9.4,3-13.2,6.3s-2.9,5.5-7.8,5.5-5.8-2.8-8.9-4.5c-6.1-3.4-31.4-10.6-38.4-11.1-13.4-1-30.8,0-44.1,1.6-3.2.4-21.4,2.6-21.5,6.3l2.7,1.8c14.6.8,29.8,5,44.2,6,3.3.2,6.8-.6,9.6-.5,7.5.4,24.7,12.2,32.2,16.4,18.6,10.1,37.4,20,56,30.3,4.6,3.5,15.9,17.3,15.6,23.1s-4.1,3.6-7.2,5.4c-9.2,5.4-30,24.9-37.2,33.3-15.4,18-23.7,62.5-27.9,86.1-10.2,57.8-13.2,116.7-15.2,175.3-2,58.6-.8,3.4-.8,5.2l-.7,84-.7,2.6c-2.7-19.5-2.5-39.2-3-58.9-2.2-84.9-3.2-171.4,9.8-255.6,2.6-17,6.8-33.6,9-50.6,9.9-1.5,17.1-4.9,25.3-10.4s17.3-11.9,16.6-18.6c-.6-5.8-17.9-17-23-20.5-26.5-18.6-53.7-36.6-86.9-39.9-3.3-.3-19.9-2-20.6,2,12.5,14.6,32.6,21.9,50,29l9,17.5c-10.3,35.2-22.3,70.1-30.2,106-9.9,44.7-11,90.6-13.1,136.2-4.7,100.8-6.3,202-7.6,302.9-.5,38.4,0,76.8-.7,115.2-1.3.2-.7-1.7-.7-2.6-.2-4,.2-8,0-12s-.8-3.4-.8-5.2c-2-74-3-148-3.7-222.1s-4.1-199.7,8.3-298.4c12.4-98.7,7.1-38.4,8.1-56.4.3-4.9-1.4-11.7.6-15.9s2.6-2.6,3.5-4c6.4-9.9,18.1-32.1,13-43.6-2.1-4.8-17.9-16.4-22.8-19.9s-13.5-10.1-16.7-11-8.2-.6-8.1,3.7,4,9.1,5.2,11.2c2.4,4.3,9.2,12.2,10.5,15.7s.6,1.7.5,3c-.2,5-3,14.5-4.2,19.9-7.2,31.1-17.5,61.5-28,91.6l-2.1-1.3-.9-12.2h-19.1l-1,1.2-1.2,11.5c-.8,1.2-1.2.5-1.8-.5-3.9-6.6-8.9-23.9-11.5-32-6.5-20-13-42.3-17.4-62.8s-4.1-15.3-2.2-19.4c3.1-6.5,10.2-13.6,13.4-21.1s3.7-7.6-1.7-8.9c-5.1-1.1-12.2,5-16.5,7.9-6.2,4.2-14.2,9.8-19.7,14.8s-9.7,8.3-8.9,17.9c1.1,12.9,7.8,24.4,14.6,34.9s2.4,2,2.9,3.1c2,4,.2,10.6.4,15.3,1.1,23.6,7.8,50.9,10.5,75,13.8,123.5,3.9,251.6,5.3,375.8l-2.3,102c-1.3,14.6-.9,29.5-1.5,44.2,0,.9.6,2.8-.7,2.6-.6-39.1-.3-78.3-.7-117.4-1-89.2-2.7-178.7-6.1-267.7-2.2-58.1-2.4-118.2-15.3-175.2-7.8-34.4-19.1-67.9-29.3-101.6,0-2.5,7.6-16.6,9.8-18.4,14.5-6.1,31.9-12.5,43.9-22.9,1.3-1.1,6.3-5.6,5.2-7.1-12.5-2.9-28.5-.3-41,2.9-22.3,5.7-50.7,25-69.5,38.5-5,3.6-19.3,12.5-19.9,18.4-.8,8.4,22.2,23.2,29.3,25.8,4.3,1.6,8.6,1.3,12.6,3.4,2,16.6,6.2,32.9,8.8,49.5,10.8,69.4,11.3,139.8,10.6,209.8-.3,32.1,1.4,69.7-3.1,101.2s-.3,4.1-1.4,4.2l-.7-88.9c-3-61-5.7-122.5-16.8-182.7s-11.2-58.7-22.8-76.2-32.1-33.4-41.5-38.8-7.4-.9-7-6.3,6.9-13.6,10.4-17.4c10-10.8,47.4-27.7,62.4-35.9,15-8.2,22.5-14.8,30.4-15.4,18-1.3,36.3-2.6,54.2-5.8,17.9-3.2,1.8-3.7-1-4.8-12.6-4.8-46.5-5.7-60.4-4.9s-24.1,5.4-34,8.8-6.4,3.7-10.1,5.6c-8.1,4-9.3-2.2-14.3-5.6-5-3.4-11.4-3.2-11.8-6.9-1.8-15.3,5.6-56.8,10-72.6,6.2-22.4,22.5-35.2,43-44,20.5-8.8,6.5-3.1,10-3.1l-15.7,10.9c-29.5,17.5-29.9,57.9-27.1,88.4.9,9.3-.8,14,10,13,15.4-1.4,35.9-11.4,49.6-10.4s33,8.2,48.2,10.3c1.8.3,3.6.3,5.4.2.2-1.1,0-1.8-.7-2.7-1.8-2.4-23.8-15.9-27.3-17-5.4-1.8-17.3-2.4-23.4-2.8s-8.4-.4-12.6,0l-4.1-8c5.6-12.3,10.3-25.3,16.2-37.5,5.9-12.2,6-12.8,11.8-17.5,5.8-4.7,20-12.6,25.5-13.5,5.5-.9,1.6-.1.8.8-7.6,7.9-22.1,13.3-27.5,23.5-5.4,10.2-6.2,20.1-7.7,27.5s-2.8,9.9-1.5,12c1.7,1.3,3.9,2,6,2.2,3.9.4,10.1.5,14.3.6s5.1-1.3,8.1-.4,4.7,5.3,6.6,6.9c7.3,6.1,18,11.2,25.8,17,2.9.5-.3-6.3.5-7.4s3.3-1.2,4.4-2c4.2-3.2,8-8.1,13.5-9.3l-5.5,6.1c-.7,2.3-4.5,6-4.8,7.9s5.2,9.8,7.6,9.2c3.1-3.7,5.5-8.4,10.9-4.8s2.3,5.8,8.6,4.8,3.6-3.7,6.2-5.1c7.1-3.8,8.4,5.1,11.2,4.9,2.7-.7,7.4-6.5,7-8.9s-7.6-11.6-10.4-14c5.4,1,8.8,5.4,12.8,8.6s4.9,2.5,5.1,2.8c.8,1.1-2.4,8,.5,7.4,11.2-7.4,23.6-13.5,32.4-23.9,4.8-1.1,27,1.9,28.6-2.9s-5.6-28.5-7.2-33.1c-2.1-6.1-3.7-8.9-8.4-13.3-5.7-5.8-16.1-10.6-21.4-16.1-5.3-5.5,0-.9.8-.8,6.3,1,25.7,12.4,30,17.3,4.3,4.9,5.5,9.9,7.3,13.7,5.9,12.2,10.5,25.1,16.3,37.4l-4.1,7.9c-9.8.4-20.8,0-30.5,1.7s-19.4,8.7-26.2,13.5-9,5.7-7.3,7.4c1.8,0,3.6,0,5.4-.2,14.6-2.1,31.5-8.7,46-10.2,11.7-1.2,21.3,3.6,32.5,6.3,5.5,1.3,20.2,5.1,25,4.7s3.2-2.9,3.5-4.8c3.2-19.1,2.6-53.9-4.4-72-4.3-11-10.6-16.8-19.6-23.9-6-4.7-12.7-8.5-18.7-13.2h1.5l-.2.6Z"/>
      </g>
      <image class="cls-3" width="617" height="1295" transform="translate(-1009.8 1090.6)" xlink:href="../../Downloads/pnghut_the-amazing-spider-man-2-youtube-logo-symmetry.png"/>
      <path class="cls-1" d="M1372.1,412.1c33.3,14.7,69.9,28.5,93.1,57.7,26.2,33.3,32,72,39.1,112.7,6.4,36.3,13.1,73.8,10.1,110.8-9.9,5.7-21.6,6.9-30.4,14.5-8.7,7.6-6.7,12.6-17.9,12.6s-13.3-6.4-20.5-10.3c-14-7.8-72.2-24.4-88.3-25.5-30.8-2.3-70.8,0-101.4,3.7-7.4.9-49.2,6-49.4,14.5l6.2,4.1c33.6,1.8,68.5,11.5,101.6,13.8,7.6.5,15.6-1.4,22.1-1.1,17.2.9,56.8,28.1,74,37.7,42.8,23.2,86,46,128.8,69.7,10.6,8,36.6,39.8,35.9,53.1-.7,13.3-9.4,8.3-16.6,12.4-21.2,12.4-69,57.3-85.5,76.6-35.4,41.4-54.5,143.7-64.2,198-23.5,132.9-30.4,268.3-35,403.1-4.6,134.7-1.8,7.8-1.8,12l-1.6,193.2-1.6,6c-6.2-44.8-5.7-90.1-6.9-135.4-5.1-195.2-7.4-394.1,22.5-587.7,6-39.1,15.6-77.3,20.7-116.4,22.8-3.4,39.3-11.3,58.2-23.9,18.9-12.6,39.8-27.4,38.2-42.8-1.4-13.3-41.2-39.1-52.9-47.1-60.9-42.8-123.5-84.2-199.8-91.7-7.6-.7-45.8-4.6-47.4,4.6,28.7,33.6,75,50.4,115,66.7l20.7,40.2c-23.7,80.9-51.3,161.2-69.4,243.7-22.8,102.8-25.3,208.3-30.1,313.2-10.8,231.8-14.5,464.5-17.5,696.5-1.1,88.3,0,176.6-1.6,264.9-3,.5-1.6-3.9-1.6-6-.5-9.2.5-18.4,0-27.6-.5-9.2-1.8-7.8-1.8-12-4.6-170.2-6.9-340.3-8.5-510.7-1.6-170.4-9.4-459.2,19.1-686.2,28.5-227,16.3-88.3,18.6-129.7.7-11.3-3.2-26.9,1.4-36.6,4.6-9.7,6-6,8-9.2,14.7-22.8,41.6-73.8,29.9-100.3-4.8-11-41.2-37.7-52.4-45.8-11.3-8-31-23.2-38.4-25.3-7.4-2.1-18.9-1.4-18.6,8.5.2,9.9,9.2,20.9,12,25.8,5.5,9.9,21.2,28.1,24.1,36.1,3,8,1.4,3.9,1.1,6.9-.5,11.5-6.9,33.3-9.7,45.8-16.6,71.5-40.2,141.4-64.4,210.6l-4.8-3-2.1-28.1h-43.9l-2.3,2.8-2.8,26.4c-1.8,2.8-2.8,1.1-4.1-1.1-9-15.2-20.5-55-26.4-73.6-14.9-46-29.9-97.3-40-144.4-10.1-47.1-9.4-35.2-5.1-44.6,7.1-14.9,23.5-31.3,30.8-48.5,7.4-17.2,8.5-17.5-3.9-20.5-11.7-2.5-28.1,11.5-37.9,18.2-14.3,9.7-32.7,22.5-45.3,34s-22.3,19.1-20.5,41.2c2.5,29.7,17.9,56.1,33.6,80.3,15.6,24.1,5.5,4.6,6.7,7.1,4.6,9.2.5,24.4.9,35.2,2.5,54.3,17.9,117,24.1,172.5,31.7,284,9,578.5,12.2,864.1l-5.3,234.5c-3,33.6-2.1,67.8-3.4,101.6,0,2.1,1.4,6.4-1.6,6-1.4-89.9-.7-180-1.6-270-2.3-205.1-6.2-410.9-14-615.6-5.1-133.6-5.5-271.8-35.2-402.9-17.9-79.1-43.9-156.1-67.4-233.6,0-5.7,17.5-38.2,22.5-42.3,33.3-14,73.4-28.7,100.9-52.7,3-2.5,14.5-12.9,12-16.3-28.7-6.7-65.5-.7-94.3,6.7-51.3,13.1-116.6,57.5-159.8,88.5-11.5,8.3-44.4,28.7-45.8,42.3-1.8,19.3,51,53.3,67.4,59.3,9.9,3.7,19.8,3,29,7.8,4.6,38.2,14.3,75.7,20.2,113.8,24.8,159.6,26,321.5,24.4,482.4-.7,73.8,3.2,160.3-7.1,232.7s-.7,9.4-3.2,9.7l-1.6-204.4c-6.9-140.3-13.1-281.7-38.6-420.1-25.5-138.4-25.8-135-52.4-175.2-26.7-40.2-73.8-76.8-95.4-89.2-21.6-12.4-17-2.1-16.1-14.5s15.9-31.3,23.9-40c23-24.8,109-63.7,143.5-82.6s51.7-34,69.9-35.4c41.4-3,83.5-6,124.6-13.3,41.2-7.4,4.1-8.5-2.3-11-29-11-106.9-13.1-138.9-11.3s-55.4,12.4-78.2,20.2-14.7,8.5-23.2,12.9c-18.6,9.2-21.4-5.1-32.9-12.9-11.5-7.8-26.2-7.4-27.1-15.9-4.1-35.2,12.9-130.6,23-166.9,14.3-51.5,51.7-80.9,98.9-101.2,47.1-20.2,14.9-7.1,23-7.1l-36.1,25.1c-67.8,40.2-68.8,133.1-62.3,203.3,2.1,21.4-1.8,32.2,23,29.9,35.4-3.2,82.6-26.2,114.1-23.9,31.5,2.3,75.9,18.9,110.8,23.7,4.1.7,8.3.7,12.4.5.5-2.5,0-4.1-1.6-6.2-4.1-5.5-54.7-36.6-62.8-39.1-12.4-4.1-39.8-5.5-53.8-6.4s-19.3-.9-29,0l-9.4-18.4c12.9-28.3,23.7-58.2,37.3-86.2,13.6-28.1,13.8-29.4,27.1-40.2,13.3-10.8,46-29,58.6-31,12.6-2.1,3.7-.2,1.8,1.8-17.5,18.2-50.8,30.6-63.2,54-12.4,23.5-14.3,46.2-17.7,63.2-3.4,17-6.4,22.8-3.4,27.6,3.9,3,9,4.6,13.8,5.1,9,.9,23.2,1.1,32.9,1.4s11.7-3,18.6-.9,10.8,12.2,15.2,15.9c16.8,14,41.4,25.8,59.3,39.1,6.7,1.1-.7-14.5,1.1-17,1.8-2.5,7.6-2.8,10.1-4.6,9.7-7.4,18.4-18.6,31-21.4l-12.6,14c-1.6,5.3-10.3,13.8-11,18.2-.7,4.4,12,22.5,17.5,21.2,7.1-8.5,12.6-19.3,25.1-11,12.4,8.3,5.3,13.3,19.8,11s8.3-8.5,14.3-11.7c16.3-8.7,19.3,11.7,25.8,11.3,6.2-1.6,17-14.9,16.1-20.5-.9-5.5-17.5-26.7-23.9-32.2,12.4,2.3,20.2,12.4,29.4,19.8,9.2,7.4,11.3,5.7,11.7,6.4,1.8,2.5-5.5,18.4,1.1,17,25.8-17,54.3-31,74.5-55,11-2.5,62.1,4.4,65.8-6.7,3.7-11-12.9-65.5-16.6-76.1-4.8-14-8.5-20.5-19.3-30.6-13.1-13.3-37-24.4-49.2-37-12.2-12.6,0-2.1,1.8-1.8,14.5,2.3,59.1,28.5,69,39.8,9.9,11.3,12.6,22.8,16.8,31.5,13.6,28.1,24.1,57.7,37.5,86l-9.4,18.2c-22.5.9-47.8.2-70.1,3.9-22.3,3.7-44.6,20-60.2,31-15.6,11-20.7,13.1-16.8,17,4.1,0,8.3,0,12.4-.5,33.6-4.8,72.4-20,105.8-23.5,26.9-2.8,49,8.3,74.7,14.5,12.6,3,46.4,11.7,57.5,10.8,11-.9,7.4-6.7,8-11,7.4-43.9,6-123.9-10.1-165.6-9.9-25.3-24.4-38.6-45.1-55-13.8-10.8-29.2-19.5-43-30.4h3.4l-.5,1.4Z"/>
    </g>
  </g>
</svg>